<svg xmlns="http://www.w3.org/2000/svg" aria-hidden="true" style="position:absolute;width:0;height:0;overflow:hidden">
  <defs>
    <symbol id="checked" viewBox="0 0 32 32">
      <path d="M20.06 10.162a1.28 1.28 0 0 1 2.119 1.437l-6.942 10.24a1.28 1.28 0 0 1-2.119 0L9.82 16.975a1.28 1.28 0 0 1 2.119-1.437l2.238 3.301 5.883-8.677z"/>
    </symbol>
    <symbol id="1" viewBox="0 0 32 32">
      <path d="M16.182 32V5.15l-5.007 1.108v-2.57L17.422.985h2.526V32h-3.766z"/>
    </symbol>
    <symbol id="2" viewBox="0 0 32 32">
      <path d="M6.484 32v-2.614a114.843 114.843 0 0 0 5.937-5.007c1.89-1.713 3.559-3.397 5.007-5.051 1.477-1.654 2.629-3.279 3.456-4.874.857-1.595 1.285-3.131 1.285-4.608a8.043 8.043 0 0 0-.576-3.057 4.632 4.632 0 0 0-1.772-2.26c-.827-.591-1.95-.886-3.367-.886-1.359 0-2.496.31-3.412.93a5.641 5.641 0 0 0-2.082 2.393 7.921 7.921 0 0 0-.665 3.234H6.706c0-2.038.428-3.781 1.285-5.228.857-1.477 2.023-2.599 3.5-3.367S14.637.453 16.498.453c2.747 0 4.992.783 6.735 2.348 1.772 1.536 2.658 3.84 2.658 6.912 0 1.831-.458 3.648-1.374 5.45-.916 1.772-2.082 3.5-3.5 5.184a48.417 48.417 0 0 1-4.564 4.652 135.602 135.602 0 0 1-4.475 3.899h14.976V32H6.484z"/>
    </symbol>
    <symbol id="3" viewBox="0 0 32 32">
      <path d="M16.585 30.208c-1.838 0-3.497-.329-4.978-.987a8.582 8.582 0 0 1-3.579-3.045c-.878-1.344-1.344-3.017-1.399-5.019h3.497c.027 1.646.603 3.072 1.728 4.279 1.125 1.179 2.702 1.769 4.731 1.769s3.552-.562 4.567-1.687c1.042-1.125 1.563-2.482 1.563-4.073 0-1.344-.329-2.441-.987-3.291-.631-.85-1.495-1.481-2.592-1.893-1.07-.411-2.249-.617-3.538-.617h-2.139v-2.921h2.139c1.865 0 3.319-.425 4.361-1.275 1.07-.85 1.605-2.043 1.605-3.579 0-1.289-.425-2.345-1.275-3.168-.823-.85-2.057-1.275-3.703-1.275-1.591 0-2.866.48-3.826 1.44-.96.933-1.495 2.112-1.605 3.538H7.658c.082-1.563.494-2.949 1.234-4.155.768-1.207 1.81-2.139 3.127-2.798C13.336.765 14.858.422 16.586.422c1.865 0 3.415.329 4.649.987 1.262.658 2.208 1.536 2.839 2.633a6.908 6.908 0 0 1 .987 3.621 7.104 7.104 0 0 1-1.193 3.991c-.795 1.179-1.989 1.975-3.579 2.386 1.701.357 3.113 1.166 4.238 2.427s1.687 2.921 1.687 4.978c0 1.591-.37 3.058-1.111 4.402-.713 1.317-1.783 2.373-3.209 3.168s-3.195 1.193-5.307 1.193z"/>
    </symbol>
    <symbol id="burger" viewBox="0 0 32 32">
      <path d="M2.667 7.993c0-.733.595-1.327 1.327-1.327h10.68a1.326 1.326 0 0 1 0 2.654H3.994a1.326 1.326 0 0 1-1.327-1.327zm0 8.007c0-.733.595-1.327 1.327-1.327h24.013a1.326 1.326 0 0 1 0 2.654H3.994A1.326 1.326 0 0 1 2.667 16zm1.326 6.68a1.326 1.326 0 0 0 0 2.654h16.013a1.326 1.326 0 0 0 0-2.654H3.993z"/>
    </symbol>
    <symbol id="facebook" viewBox="0 0 32 32">
      <path d="M19.52 4.64h.96v3.6h-1.2c-.48 0-.96 0-1.2.24s-.24.48-.24 1.04v1.28h2.64v3.04h-2.64v13.2h-4.08V13.76H11.6v-3.04h2.16V9.68c0-1.76.24-3.04.72-3.6.72-1.04 2.16-1.52 4.32-1.52.24.08.48.08.72.08z"/>
    </symbol>
    <symbol id="instagram" viewBox="0 0 32 32">
      <path d="M28.718 10.756a9.264 9.264 0 0 0-.596-3.145 6.547 6.547 0 0 0-3.743-3.737 9.42 9.42 0 0 0-3.108-.596c-1.368-.061-1.801-.078-5.273-.078s-3.916 0-5.274.078a9.413 9.413 0 0 0-3.106.596 6.541 6.541 0 0 0-3.743 3.737 9.288 9.288 0 0 0-.596 3.101c-.061 1.367-.08 1.8-.08 5.265s0 3.909.08 5.265a9.335 9.335 0 0 0 .596 3.104 6.548 6.548 0 0 0 3.744 3.735 9.37 9.37 0 0 0 3.106.639c1.369.061 1.803.08 5.274.08s3.916 0 5.274-.08a9.362 9.362 0 0 0 3.108-.595 6.555 6.555 0 0 0 3.743-3.737 9.35 9.35 0 0 0 .596-3.104c.061-1.365.08-1.798.08-5.265-.003-3.466-.003-3.906-.082-5.264zM15.99 22.531c-3.631 0-6.572-2.936-6.572-6.561s2.941-6.561 6.572-6.561c3.628 0 6.572 2.936 6.572 6.561s-2.944 6.561-6.572 6.561zm6.834-11.835a1.53 1.53 0 1 1 0-3.06 1.53 1.53 0 1 1 0 3.06z"/>
      <path d="M15.992 19.976a4.004 4.004 0 1 0 0-8.009 4.004 4.004 0 0 0 0 8.009z"/>
    </symbol>
    <symbol id="logo" viewBox="0 0 32 32">
      <path d="M29.082.314h-4.009c-1.237 0-2.24.983-2.24 2.195v3.929c0 1.212 1.003 2.195 2.24 2.195h4.009c1.237 0 2.24-.983 2.24-2.195V2.509c0-1.212-1.003-2.195-2.24-2.195zM6.73 23.04H2.412C1.08 23.04 0 24.023 0 25.235v3.929c0 1.213 1.08 2.195 2.412 2.195H6.73c1.332 0 2.412-.983 2.412-2.195v-3.929c0-1.212-1.08-2.195-2.412-2.195zM6.25 11.582H2.241c-1.237 0-2.24.983-2.24 2.195v3.929c0 1.212 1.003 2.195 2.24 2.195H6.25c1.237 0 2.24-.983 2.24-2.195v-3.929c0-1.212-1.003-2.195-2.24-2.195zM17.766 22.978h-4.009c-1.237 0-2.24.983-2.24 2.195v3.929c0 1.212 1.003 2.195 2.241 2.195h4.009c1.237 0 2.24-.983 2.24-2.195v-3.929c0-1.212-1.003-2.195-2.24-2.195zM6.25.086H2.241c-1.237 0-2.24.983-2.24 2.195V6.21c0 1.212 1.003 2.195 2.24 2.195H6.25c1.237 0 2.24-.983 2.24-2.195V2.281C8.49 1.069 7.487.086 6.25.086zM18.076 11.697h-4.009c-1.237 0-2.24.983-2.24 2.195v3.929c0 1.212 1.003 2.195 2.24 2.195h4.009c1.237 0 2.24-.983 2.24-2.195v-3.929c0-1.212-1.003-2.195-2.24-2.195zM29.333 22.978h-4.01c-1.237 0-2.24.983-2.24 2.195v3.929c0 1.212 1.003 2.195 2.24 2.195h4.009c1.237 0 2.24-.983 2.24-2.195v-3.929c0-1.212-1.003-2.195-2.24-2.195zM17.591.224h-4.009c-1.237 0-2.24.983-2.24 2.195v3.929c0 1.212 1.003 2.195 2.24 2.195h4.009c1.237 0 2.24-.984 2.24-2.196V2.418c0-1.212-1.003-2.195-2.24-2.195zM29.044 11.926h-4.01c-1.237 0-2.24.983-2.24 2.195v3.929c0 1.212 1.003 2.195 2.24 2.195h4.009c1.237 0 2.24-.983 2.24-2.195v-3.929c0-1.212-1.003-2.195-2.24-2.195z"/>
    </symbol>
    <symbol id="right-arrow-down" viewBox="0 0 32 32">
      <path d="M32 4.741 27.259 0v23.704L3.555 0-.001 3.556 23.703 27.26H-.001l4.741 4.741h27.259V4.742z"/>
    </symbol>
    <symbol id="shopping-cart" viewBox="0 0 32 32">
      <path stroke-linecap="round" stroke-linejoin="round" stroke-width="2.667" d="M12 29.333a1.333 1.333 0 1 0 0-2.667 1.333 1.333 0 0 0 0 2.667zM26.667 29.333a1.333 1.333 0 1 0 0-2.667 1.333 1.333 0 0 0 0 2.667z"/>
      <path stroke-linecap="round" stroke-linejoin="round" stroke-width="2.4" d="M1.333 1.333h5.333l3.573 17.853a2.671 2.671 0 0 0 2.666 2.147h12.96a2.667 2.667 0 0 0 2.666-2.147l2.133-11.187H7.997"/>
    </symbol>
    <symbol id="x" viewBox="0 0 32 32">
      <path stroke-linecap="round" stroke-linejoin="round" stroke-width="3.429" d="M24 8 8 24M8 8l16 16"/>
    </symbol>
    <symbol id="youtube" viewBox="0 0 32 32">
      <path d="M24.24 6c-1.36-.08-4.16-.16-8.4-.16h-.56c-4.08 0-6.8.08-8.16.24-1.84.16-3.12.64-3.84 1.28-.64.56-1.12 1.6-1.28 2.96-.08.88-.16 2.72-.16 5.52v.4c0 2.64.08 4.48.24 5.36.24 1.28.64 2.24 1.44 2.8.8.64 2.16 1.04 4.08 1.2 1.36.08 4.16.16 8.4.16h.56c4.08 0 6.8-.08 8.16-.24 1.84-.16 3.12-.64 3.84-1.28.64-.56 1.12-1.6 1.28-2.96.08-.88.16-2.72.16-5.52v-.4c0-2.64-.08-4.48-.24-5.36-.24-1.28-.64-2.24-1.44-2.8-.8-.64-2.16-1.04-4.08-1.2zm-3.12 9.84-8.8 5.28V10.56l8.8 5.28z"/>
    </symbol>
  </defs>
</svg>
